<svg width="512" height="512" viewBox="0 0 512 512" fill="none" xmlns="http://www.w3.org/2000/svg">
<rect width="512" height="512" fill="#2F0059"/>
<path d="M157.57 256L159.519 249.148L160.494 245.233L163.66 249.736C179.203 271.818 210.93 272.111 225.585 250.303C228.927 245.331 230.155 244.127 230.779 245.243C241.088 263.703 254.896 271.69 271.432 268.744C317.473 260.542 309.61 191.907 255.013 196.292L255.987 193.356H328.095C331.788 213.833 333.269 219.784 333.766 219.784C334.272 219.784 341.746 205.141 350.38 187.238C375.968 134.187 381.084 127.11 390.341 131.965C405.805 140.089 434.268 174.034 431.89 181.542C430.195 186.906 422.029 182.657 413.415 171.939C407.384 164.432 407.637 164.256 409.099 175.081C411.466 192.69 402.999 193.424 398.789 175.982L398.253 173.78L398.243 173.046C398.234 172.644 397.61 171.215 396.86 169.864C395.651 167.701 395.593 168.347 397.279 183.568C394.17 192.553 390.068 183.724 388.285 168.886C387.876 165.46 387.876 165.46 382.896 165.763C375.763 166.204 375.656 165.293 381.932 157.698C387.846 150.543 388.373 149.251 386.17 147.234C383.549 144.836 380.704 149.446 364.733 182.031C338.774 234.995 337.098 239.106 338.57 246.202L339.788 252.085L341.737 263.83C370.541 417.377 378.706 462.628 378.463 463.46C378.151 464.566 372.372 460.582 357.376 448.914C346.014 440.076 336.104 432.646 335.364 432.402C334.565 432.137 326.662 438.94 316.431 448.679C306.774 457.871 298.004 465.701 296.952 466.063C295.286 466.641 293.434 464.125 283.183 447.368C276.664 436.718 270.721 427.782 269.98 427.508C269.191 427.224 257.303 436.66 241.293 450.285C223.13 465.74 213.668 473.189 213.093 472.484C212.616 471.907 210.657 461.825 208.728 450.099C205.083 427.86 204.197 424.366 202.16 424.336C201.488 424.336 181.639 434.134 158.058 446.115C115.183 467.913 115.183 467.913 115.046 464.977C114.978 463.362 124.518 415.684 136.24 359.02L157.57 256ZM161.107 380.427C164.167 371.989 164.167 371.989 167.685 394.257C169.624 406.502 171.505 416.525 171.865 416.525C172.216 416.525 172.576 416.418 172.645 416.281C172.723 416.144 172.323 401.961 171.758 384.753C170.725 353.47 170.725 353.47 166.944 357.836C163.173 362.201 163.173 362.201 163.738 355.839C165.551 335.538 167.626 303.952 167.178 303.502C166.058 302.366 165.093 303.189 161.751 308.122C157.746 314.044 157.941 314.308 156.83 301.515C155.972 291.727 155.972 291.727 154.735 306.409C154.062 314.484 153.166 324.399 152.747 328.432C151.734 338.279 151.977 338.426 156.947 330.899C160.016 326.24 160.182 330.028 158.535 367.017C158.019 378.822 157.687 388.571 157.824 388.668C157.95 388.776 159.431 385.066 161.107 380.427ZM311.549 344.583C311.51 347.274 311.052 361.477 310.535 376.149C310.009 390.822 309.805 402.822 310.077 402.822C310.35 402.822 310.984 400.727 311.49 398.173C311.987 395.618 313.751 385.703 315.408 376.149C317.064 366.596 318.545 358.775 318.691 358.775C318.838 358.775 319.987 361.751 321.235 365.382C322.482 369.014 323.788 372.322 324.138 372.724C324.489 373.125 324.314 360.234 323.758 344.093C323.193 327.943 322.959 314.729 323.223 314.729C323.495 314.729 325.123 316.598 326.847 318.889C330.706 323.988 330.765 322.882 328.163 295.153C326.458 277.044 326.458 277.044 325.668 288.056C324.752 300.761 324.908 300.585 320.601 294.174C314.579 285.188 314.423 286.627 317.405 323.117C318.487 336.419 319.257 347.421 319.11 347.558C318.955 347.695 317.21 345.982 315.232 343.751C311.617 339.689 311.617 339.689 311.549 344.583ZM277.425 336.263L282.501 322.315C287.958 307.309 301.746 257.155 301.863 251.869C301.922 249.579 298.57 256.039 290.228 274.314C276.918 303.463 277.415 302.729 269.629 297.11L263.597 291.482C257.566 285.854 257.566 285.854 254.038 291.237L246.126 301.76C235.563 315.825 237.473 315.639 224.659 303.844C214.399 294.389 213.58 293.841 212.138 298.089L205.366 307.427C198.594 316.765 198.594 316.765 196.898 314.171C195.212 311.577 195.212 311.577 193.624 318.644L193.663 316.442C193.751 311.048 192.26 308.582 182.516 297.972C170.218 284.572 170.179 284.64 175.626 310.951C181.288 338.308 194.199 372.626 202.394 378.352L205.561 383.001C207.354 385.634 211.437 389.491 214.983 391.908C234.959 405.524 253.522 391.928 277.425 336.263Z" fill="#23D6DB"/>
<path d="M329.069 183.568L327.364 182.344C326.009 181.375 309.6 181.277 171.212 182.589L142.954 157.14L135.402 148.575C130.598 143.133 126.876 137.779 122.491 127.775C125.687 107.837 177.76 54.0022 200.922 42.5501C213.561 36.2955 223.12 41.6203 251.018 70.4267C260.45 80.1659 275.622 95.8465 284.733 105.263C305.488 126.718 309.269 128.989 327.607 131.006C338.706 132.229 339.495 132.464 343.198 135.665C355.564 146.363 351.569 166.859 334.672 179.408L329.069 183.568ZM200.318 153.244C200.952 157.042 202.179 160.507 203.349 161.809C204.918 163.551 205.707 163.786 207.266 162.993C208.698 162.259 209.205 161.026 209.195 158.344C209.176 156.337 208.767 152.941 208.27 150.807C207.422 147.146 207.968 144.357 208.971 147.195C210.024 150.18 214.028 156.122 216.328 158.128C221.765 162.876 222.506 156.416 214.282 140.843L236.353 140.921C260.635 140.999 262.565 140.627 261.444 136.134C260.684 133.081 229.083 85.6864 227.807 85.6864C227.339 85.6864 222.34 92.8024 206.428 117.312L195.885 109.462C175.695 94.4175 178.345 94.623 169.146 107.367C146.101 139.306 149.366 149.084 181.444 144.21C192.913 142.467 192.026 142.154 190.681 147.499C189.298 153.039 189.785 162.23 191.5 162.797C193.117 163.336 197.463 153.029 197.502 148.575C197.522 145.835 198.73 144.004 199.12 146.128C199.188 146.529 199.734 149.73 200.318 153.244Z" fill="#3F7A96"/>
<path d="M193.624 318.644V322.726C193.624 327.904 192.874 327.502 203.739 328.158C217.332 328.971 218.063 327.532 212.138 298.089C213.58 293.841 214.399 294.389 224.659 303.844C237.473 315.639 235.563 315.825 246.126 301.76L254.038 291.237L253.113 306.624C252.606 315.091 252.362 322.178 252.567 322.383C252.772 322.589 257.39 322.99 262.828 323.274C275.68 323.939 275.427 324.331 269.629 297.11C277.415 302.729 276.918 303.463 290.228 274.314C298.57 256.039 301.922 249.579 301.863 251.869C301.746 257.155 287.958 307.309 282.501 322.315L277.425 336.263L267.096 336.018C241.634 335.411 215.948 350.015 202.394 378.352C194.199 372.626 181.288 338.308 175.626 310.951C170.179 284.64 170.218 284.572 182.516 297.972C192.26 308.582 193.751 311.048 193.663 316.442L193.624 318.644Z" fill="#025E5B"/>
<path d="M164.391 238.381L158.545 237.403C142.818 228.476 142.642 219.412 152.455 208.518L154.647 206.081L162.442 199.229L171.212 193.356H255.987L255.013 196.292L251.154 198.495C245.532 201.705 240.893 204.857 236.499 209.017L228.703 213.911L224.806 216.847L217.985 219.784L217.741 220.518C217.605 220.919 216.513 221.36 213.113 221.742L212.382 221.516C211.982 221.399 210.004 222.505 204.343 226.636L186.803 233.487L177.059 237.403L175.841 237.158C175.168 237.021 174.077 237.246 172.187 238.381H164.391Z" fill="#16546D"/>
<path d="M200.318 153.244C199.734 149.73 199.188 146.529 199.12 146.128C198.73 144.004 197.522 145.835 197.502 148.575C197.463 153.029 193.117 163.336 191.5 162.797C189.785 162.23 189.298 153.039 190.681 147.499C192.026 142.154 192.913 142.467 181.444 144.21C149.366 149.084 146.101 139.306 169.146 107.367C178.345 94.623 175.695 94.4175 195.885 109.462L206.428 117.312C222.34 92.8024 227.339 85.6864 227.807 85.6864C229.083 85.6864 260.684 133.081 261.444 136.134C262.565 140.627 260.635 140.999 236.353 140.921L214.282 140.843C222.506 156.416 221.765 162.876 216.328 158.128C214.028 156.122 210.024 150.18 208.971 147.195C207.968 144.357 207.422 147.146 208.27 150.807C208.767 152.941 209.176 156.337 209.195 158.344C209.205 161.026 208.698 162.259 207.266 162.993C205.707 163.786 204.918 163.551 203.349 161.809C202.179 160.507 200.952 157.042 200.318 153.244ZM180.966 109.178C174.603 109.178 159.159 131.818 163.417 134.901C163.953 135.293 168.484 135.391 173.483 135.126C178.481 134.872 186.043 133.942 190.292 133.061C199.529 131.162 199.042 131.524 196.986 128.108C190.408 117.175 183.646 109.178 180.966 109.178ZM214.681 120.748C209.916 128.617 209.624 128.314 224.075 130.653C230.906 131.759 237.785 132.669 239.354 132.669C240.932 132.669 243.349 132.239 244.742 131.71C248.143 130.408 247.364 127.482 241.147 118.232C230.409 102.258 225.585 102.718 214.681 120.748Z" fill="#F9FCFC"/>
<path d="M202.394 378.352C215.948 350.015 241.634 335.411 267.096 336.018L277.425 336.263C253.522 391.928 234.959 405.524 214.983 391.908C211.437 389.491 207.354 385.634 205.561 383.001L202.394 378.352Z" fill="#EF6666"/>
<path d="M108.849 178.674L109.736 172.556C110.233 169.189 110.389 166.213 110.106 165.949C109.531 165.421 108.05 168.602 107.875 171.822C100.8 191.731 95.0707 189.147 96.8442 174.034L97.9648 164.481C79.2071 183.401 74.1499 184.86 74.3642 177.45C74.676 166.253 111.012 127.775 121.283 127.775H122.491C126.876 137.779 130.598 143.133 135.402 148.575L142.954 157.14L162.442 199.229L154.647 206.081C125.025 146.745 122.316 142.595 119.782 146.03C118.301 148.037 118.467 148.399 123.768 154.37C131.563 163.14 130.9 165.43 121.244 163.16C118.545 162.523 118.545 162.523 116.8 172.634C114.793 184.302 111.889 189.264 109.833 184.547C109.249 183.206 108.791 181.326 108.81 180.387L108.849 178.674Z" fill="#23D6DB"/>
<path d="M171.212 193.356V182.589C309.6 181.277 326.009 181.375 327.364 182.344L329.069 183.568L328.095 193.356H255.987H171.212Z" fill="#F4CE0F"/>
<path d="M160.494 245.233L158.545 237.403L164.391 238.381L167.558 244.01C184.689 274.451 231.539 258.76 224.806 216.847L228.703 213.911L229.726 216.515C230.75 219.118 230.75 219.118 236.499 209.017C240.893 204.857 245.532 201.705 251.154 198.495L255.013 196.292C309.61 191.907 317.473 260.542 271.432 268.744C254.896 271.69 241.088 263.703 230.779 245.243C230.155 244.127 228.927 245.331 225.585 250.303C210.93 272.111 179.203 271.818 163.66 249.736L160.494 245.233ZM232.88 231.695C232.927 240.302 236.364 248.541 242.439 254.611C248.515 260.68 256.735 264.088 265.304 264.088C273.873 264.088 282.093 260.68 288.169 254.611C294.245 248.541 297.682 240.302 297.729 231.695C297.682 223.088 294.245 214.849 288.169 208.779C282.093 202.71 273.873 199.303 265.304 199.303C256.735 199.303 248.515 202.71 242.439 208.779C236.364 214.849 232.927 223.088 232.88 231.695Z" fill="#000202"/>
<path d="M232.884 231.696C232.931 223.089 236.367 214.85 242.443 208.78C248.519 202.711 256.739 199.304 265.308 199.304C273.877 199.304 282.097 202.711 288.173 208.78C294.249 214.85 297.686 223.089 297.733 231.696C297.686 240.303 294.249 248.542 288.173 254.612C282.097 260.681 273.877 264.089 265.308 264.089C256.739 264.089 248.519 260.681 242.443 254.612C236.367 248.542 232.931 240.303 232.884 231.696ZM285.224 215.87L284.318 214.656C283.022 212.933 282.213 214.137 284.249 217.827L282.301 223.7L274.505 226.637L269.633 222.721L269.032 217.892C268.803 216.047 269.616 214.227 271.144 213.167L272.313 212.356C276.931 209.165 275.353 208.039 266.262 208.039C238.383 208.039 232.303 246.829 258.7 256.236C279.299 263.577 299.07 239.948 285.224 215.87Z" fill="#F9FCFC"/>
<path d="M161.107 380.427C159.431 385.066 157.95 388.776 157.824 388.668C157.687 388.571 158.019 378.822 158.535 367.017C160.182 330.028 160.016 326.24 156.947 330.899C151.977 338.426 151.733 338.279 152.747 328.432C153.166 324.399 154.062 314.484 154.735 306.409C155.972 291.727 155.972 291.727 156.83 301.515C157.941 314.308 157.746 314.044 161.751 308.122C165.093 303.189 166.058 302.366 167.178 303.502C167.626 303.952 165.551 335.538 163.738 355.839C163.173 362.201 163.173 362.201 166.944 357.836C170.725 353.47 170.725 353.47 171.758 384.753C172.323 401.961 172.723 416.144 172.645 416.281C172.576 416.418 172.216 416.525 171.865 416.525C171.505 416.525 169.624 406.502 167.685 394.257C164.167 371.989 164.167 371.989 161.107 380.427Z" fill="#F9FCFC"/>
<path d="M311.549 344.583C311.617 339.689 311.617 339.689 315.232 343.751C317.21 345.982 318.955 347.695 319.11 347.558C319.257 347.421 318.487 336.419 317.405 323.117C314.423 286.627 314.579 285.188 320.601 294.174C324.908 300.585 324.752 300.761 325.668 288.056C326.458 277.044 326.458 277.044 328.163 295.153C330.765 322.882 330.706 323.988 326.847 318.889C325.123 316.598 323.495 314.729 323.223 314.729C322.959 314.729 323.193 327.943 323.758 344.093C324.314 360.234 324.489 373.125 324.138 372.724C323.788 372.322 322.482 369.014 321.235 365.382C319.987 361.751 318.838 358.775 318.691 358.775C318.545 358.775 317.064 366.596 315.408 376.149C313.751 385.703 311.987 395.618 311.49 398.173C310.984 400.727 310.35 402.822 310.078 402.822C309.805 402.822 310.009 390.822 310.535 376.149C311.052 361.477 311.51 347.274 311.549 344.583Z" fill="#F9FCFC"/>
<path d="M268.655 214.89L269.629 222.72H266.034C255.783 222.72 253.113 237.226 262.672 241.005C270.263 244 277.863 237.246 274.501 226.636L282.297 223.699L284.246 226.636L283.515 227.017C280.494 228.613 279.909 230.639 284.246 233.487L283.817 237.51C283.105 244.127 275.33 251.096 267.856 251.801C244.937 253.974 237.912 223.298 259.329 214.547C263.412 212.883 264.65 212.736 268.655 214.89Z" fill="#0C3F66"/>
<path d="M268.655 214.89C264.65 212.736 263.412 212.883 259.329 214.547C237.912 223.298 244.937 253.974 267.856 251.801C275.329 251.096 283.105 244.127 283.817 237.51L284.245 233.487L285.464 233.203C287.286 232.773 287.49 228.955 284.245 226.636L282.297 223.699L284.245 217.826L285.22 215.869C299.066 239.947 279.295 263.576 258.696 256.235C232.299 246.829 238.379 208.038 266.258 208.038C275.349 208.038 276.928 209.164 272.309 212.355L268.655 214.89Z" fill="#3587C6"/>
<path d="M353.43 262.852V251.106C353.459 235.21 364.178 230.815 369.157 240.016C372.421 246.045 371.525 270.193 367.9 274.118C362.161 280.324 353.43 276.183 353.43 267.266V262.852Z" fill="#C459E8"/>
<path d="M149.775 249.148V257.958C149.648 273.824 138.433 279.041 133.687 269.782C131.095 264.731 131.641 240.173 134.428 236.159C139.807 228.397 148.995 232.704 149.492 243.226L149.775 249.148Z" fill="#C459E8"/>
<path d="M254.038 291.237C257.566 285.854 257.566 285.854 263.597 291.482L269.629 297.11C275.427 324.331 275.68 323.939 262.828 323.274C257.39 322.99 252.772 322.589 252.567 322.383C252.362 322.178 252.606 315.091 253.113 306.624L254.038 291.237Z" fill="#F9FCFC"/>
<path d="M180.966 109.178C183.646 109.178 190.408 117.175 196.986 128.108C199.042 131.524 199.529 131.162 190.291 133.061C186.043 133.942 178.481 134.872 173.483 135.126C168.484 135.391 163.953 135.293 163.417 134.901C159.159 131.818 174.603 109.178 180.966 109.178Z" fill="#000202"/>
<path d="M214.681 120.748C225.585 102.718 230.409 102.258 241.147 118.232C247.364 127.482 248.143 130.408 244.742 131.71C243.349 132.239 240.932 132.669 239.354 132.669C237.785 132.669 230.906 131.759 224.075 130.653C209.624 128.314 209.916 128.617 214.681 120.748Z" fill="#000202"/>
<path d="M164.391 238.381H172.187L175.354 243.52C189.57 266.591 228.937 249.638 217.985 219.784L224.806 216.847C231.539 258.76 184.689 274.451 167.558 244.01L164.391 238.381Z" fill="#F9FCFC"/>
<path d="M193.624 318.644C195.212 311.577 195.212 311.577 196.898 314.171C198.594 316.765 198.594 316.765 205.366 307.427L212.138 298.089C218.063 327.532 217.332 328.971 203.739 328.158C192.874 327.502 193.624 327.904 193.624 322.726V318.644Z" fill="#F9FCFC"/>
<path d="M177.059 237.403L186.803 233.487L188.508 236.179C193.059 243.354 206.642 238.107 204.343 226.636C210.004 222.505 211.982 221.399 212.382 221.516L213.113 221.742L212.138 224.678L210.92 226.724C209.887 228.456 209.965 228.906 213.113 230.551L213.687 232.264C214.029 233.292 212.908 236.228 210.881 239.615C203.953 251.165 190.652 252.496 177.059 237.403Z" fill="#0C3F66"/>
<path d="M172.187 238.381C174.077 237.246 175.168 237.021 175.841 237.158L177.059 237.403C190.652 252.496 203.953 251.165 210.881 239.615C212.908 236.228 214.028 233.292 213.687 232.264L213.113 230.551L214.516 230.306C217.381 229.807 217.527 226.41 212.138 224.678L213.113 221.742C216.513 221.36 217.605 220.919 217.741 220.518L217.985 219.784C228.937 249.638 189.57 266.591 175.354 243.52L172.187 238.381Z" fill="#3587C6"/>
<path d="M162.442 199.229L142.954 157.14L171.212 182.589V193.356L162.442 199.229Z" fill="#2D0056" fill-opacity="0.988235"/>
<path d="M269.629 222.72L274.501 226.636C277.863 237.246 270.263 244 262.672 241.005C253.113 237.226 255.783 222.72 266.034 222.72H269.629Z" fill="#02283F"/>
<path d="M186.803 233.487L204.343 226.636C206.642 238.107 193.059 243.354 188.508 236.179L186.803 233.487Z" fill="#02283F"/>
<path d="M339.788 252.085L353.43 251.106V262.852C351.539 260.219 342.263 260.64 341.98 262.352L341.737 263.831L339.788 252.085Z" fill="#A033C9"/>
<path d="M149.775 257.958V249.148H159.519L157.57 256C156.265 257.517 154.511 257.958 152.825 257.958H149.775Z" fill="#A033C9"/>
<path d="M284.245 226.636C287.49 228.955 287.286 232.773 285.464 233.203L284.245 233.487C279.909 230.639 280.494 228.613 283.515 227.017L284.245 226.636Z" fill="#F9FCFC"/>
<path d="M212.138 224.678C217.527 226.41 217.38 229.807 214.516 230.306L213.113 230.551C209.965 228.906 209.887 228.456 210.92 226.724L212.138 224.678Z" fill="#F9FCFC"/>
<path d="M228.703 213.911L236.499 209.017C230.75 219.118 230.75 219.118 229.726 216.515L228.703 213.911Z" fill="#23D6DB"/>
<path d="M398.253 173.78L397.279 183.568C395.593 168.347 395.651 167.701 396.86 169.864C397.61 171.215 398.234 172.644 398.243 173.046L398.253 173.78Z" fill="#3F7A96"/>
<path d="M108.849 178.674L107.875 171.822C108.05 168.602 109.531 165.421 110.106 165.949C110.389 166.213 110.233 169.189 109.736 172.556L108.849 178.674Z" fill="#3F7A96"/>
<path d="M285.22 215.869L284.246 217.826C282.209 214.136 283.018 212.932 284.314 214.655L285.22 215.869Z" fill="#B5D3EA"/>
</svg>
